<svg width="29" height="28" viewBox="0 0 29 28" fill="none" xmlns="http://www.w3.org/2000/svg">
<path d="M14.8534 25.6666C21.2968 25.6666 26.5201 20.4432 26.5201 13.9999C26.5201 7.5566 21.2968 2.33325 14.8534 2.33325C8.41011 2.33325 3.18677 7.5566 3.18677 13.9999C3.18677 20.4432 8.41011 25.6666 14.8534 25.6666Z" fill="#094C3D"/>
<path d="M15.0868 20.2767C14.2701 20.2767 13.4418 19.9616 12.8234 19.3433C12.2168 18.7366 11.8784 17.9317 11.8784 17.08C11.8784 16.2283 12.2168 15.4117 12.8234 14.8167L14.4684 13.1717C14.8067 12.8333 15.3667 12.8333 15.7051 13.1717C16.0434 13.51 16.0434 14.07 15.7051 14.4083L14.0601 16.0533C13.7801 16.3333 13.6284 16.695 13.6284 17.08C13.6284 17.465 13.7801 17.8383 14.0601 18.1066C14.6318 18.6783 15.5535 18.6783 16.1251 18.1066L18.7151 15.5166C20.1968 14.035 20.1968 11.6317 18.7151 10.15C17.2334 8.66834 14.8301 8.66834 13.3485 10.15L10.5251 12.9733C9.93008 13.5683 9.60343 14.35 9.60343 15.1783C9.60343 16.0067 9.93008 16.8 10.5251 17.3833C10.8634 17.7217 10.8634 18.2817 10.5251 18.62C10.1867 18.9583 9.62674 18.9583 9.28841 18.62C8.36674 17.6983 7.86511 16.4733 7.86511 15.1667C7.86511 13.86 8.36674 12.635 9.28841 11.7133L12.1118 8.88999C14.2701 6.73166 17.7934 6.73166 19.9518 8.88999C22.1101 11.0483 22.1101 14.5717 19.9518 16.73L17.3618 19.32C16.7318 19.9617 15.9151 20.2767 15.0868 20.2767Z" fill="#A3E659"/>
</svg>
