<svg width="29" height="28" viewBox="0 0 29 28" fill="none" xmlns="http://www.w3.org/2000/svg">
<path d="M23.1601 10.6401C22.7051 10.6401 22.3434 11.0018 22.3434 11.4568V13.3001C22.3434 17.4301 18.9834 20.7901 14.8534 20.7901C10.7234 20.7901 7.36344 17.4301 7.36344 13.3001V11.4451C7.36344 10.9901 7.00177 10.6284 6.54677 10.6284C6.09177 10.6284 5.7301 10.9901 5.7301 11.4451V13.2884C5.7301 18.0368 9.38177 21.9451 14.0368 22.3651V24.8501C14.0368 25.3051 14.3984 25.6668 14.8534 25.6668C15.3084 25.6668 15.6701 25.3051 15.6701 24.8501V22.3651C20.3134 21.9568 23.9768 18.0368 23.9768 13.2884V11.4451C23.9651 11.0018 23.6034 10.6401 23.1601 10.6401Z" fill="#A3E659"/>
<path d="M14.8534 2.33325C12.0068 2.33325 9.69678 4.64325 9.69678 7.48992V13.4633C9.69678 16.3099 12.0068 18.6199 14.8534 18.6199C17.7001 18.6199 20.0101 16.3099 20.0101 13.4633V7.48992C20.0101 4.64325 17.7001 2.33325 14.8534 2.33325ZM16.3818 10.4416C16.3001 10.7449 16.0318 10.9433 15.7284 10.9433C15.6701 10.9433 15.6118 10.9316 15.5534 10.9199C15.0984 10.7916 14.6201 10.7916 14.1651 10.9199C13.7918 11.0249 13.4301 10.8033 13.3368 10.4416C13.2318 10.0799 13.4534 9.70658 13.8151 9.61325C14.5034 9.42658 15.2268 9.42658 15.9151 9.61325C16.2651 9.70658 16.4751 10.0799 16.3818 10.4416ZM17.0001 8.17825C16.8951 8.45825 16.6384 8.62158 16.3584 8.62158C16.2768 8.62158 16.2068 8.60992 16.1251 8.58659C15.3084 8.28325 14.3984 8.28325 13.5818 8.58659C13.2318 8.71492 12.8351 8.52825 12.7068 8.17825C12.5784 7.82825 12.7651 7.43159 13.1151 7.31492C14.2351 6.90659 15.4718 6.90659 16.5918 7.31492C16.9418 7.44325 17.1284 7.82825 17.0001 8.17825Z" fill="#094C3D"/>
</svg>
