<svg width="12" height="17" viewBox="0 0 12 17" fill="none" xmlns="http://www.w3.org/2000/svg">
<path d="M5.85344 0.333252C3.00678 0.333252 0.696777 2.64325 0.696777 5.48992V11.4633C0.696777 14.3099 3.00678 16.6199 5.85344 16.6199C8.70011 16.6199 11.0101 14.3099 11.0101 11.4633V5.48992C11.0101 2.64325 8.70011 0.333252 5.85344 0.333252ZM7.38178 8.44158C7.30011 8.74492 7.03178 8.94325 6.72844 8.94325C6.67011 8.94325 6.61178 8.93158 6.55344 8.91992C6.09844 8.79158 5.62011 8.79158 5.16511 8.91992C4.79178 9.02492 4.43011 8.80325 4.33678 8.44158C4.23178 8.07992 4.45344 7.70658 4.81511 7.61325C5.50344 7.42658 6.22678 7.42658 6.91511 7.61325C7.26511 7.70658 7.47511 8.07992 7.38178 8.44158ZM8.00011 6.17825C7.89511 6.45825 7.63844 6.62158 7.35844 6.62158C7.27678 6.62158 7.20678 6.60992 7.12511 6.58659C6.30844 6.28325 5.39844 6.28325 4.58178 6.58659C4.23178 6.71492 3.83511 6.52825 3.70678 6.17825C3.57844 5.82825 3.76511 5.43159 4.11511 5.31492C5.23511 4.90659 6.47178 4.90659 7.59178 5.31492C7.94178 5.44325 8.12844 5.82825 8.00011 6.17825Z" fill="#094C3D"/>
</svg>
