<svg width="36" height="36" viewBox="0 0 36 36" fill="none" xmlns="http://www.w3.org/2000/svg">
<rect width="36" height="36" rx="18" fill="#18BFF2"/>
<path d="M17.2498 26.2427C15.2137 25.2491 12.1866 24.2914 10.1308 24.0164C10.1302 24.0163 10.1297 24.0163 10.1291 24.0162L9.84227 23.9766L9.84227 23.9766L9.83281 23.9754C9.25393 23.903 8.74979 23.3272 8.74979 22.7396V10.6596C8.74979 9.9055 9.34748 9.35396 10.097 9.41695L10.0993 9.41713C12.0785 9.57735 15.1433 10.5986 16.8229 11.646L16.8229 11.6461L16.8339 11.6527L17.0839 11.8027C17.1375 11.8349 17.193 11.8638 17.2498 11.8896V26.2427Z" stroke="white" stroke-width="1.5"/>
<path d="M27.9999 10.6698V22.7398C27.9999 23.6998 27.2199 24.5998 26.2599 24.7198L25.9299 24.7598C23.7499 25.0498 20.3899 26.1598 18.4699 27.2198C18.3399 27.2998 18.1799 27.3298 17.9999 27.3298V11.2998C18.1899 11.2998 18.3799 11.2498 18.5299 11.1598L18.6999 11.0498C20.4799 9.92978 23.6699 8.85978 25.7699 8.67978H25.8299C27.0199 8.57978 27.9999 9.46978 27.9999 10.6698Z" fill="white"/>
<path d="M13.7501 15.2404H11.5001C11.0901 15.2404 10.7501 14.9004 10.7501 14.4904C10.7501 14.0804 11.0901 13.7404 11.5001 13.7404H13.7501C14.1601 13.7404 14.5001 14.0804 14.5001 14.4904C14.5001 14.9004 14.1601 15.2404 13.7501 15.2404Z" fill="white"/>
<path d="M14.5001 18.2397H11.5001C11.0901 18.2397 10.7501 17.8997 10.7501 17.4897C10.7501 17.0797 11.0901 16.7397 11.5001 16.7397H14.5001C14.9101 16.7397 15.2501 17.0797 15.2501 17.4897C15.2501 17.8997 14.9101 18.2397 14.5001 18.2397Z" fill="white"/>
</svg>
