<svg width="36" height="36" viewBox="0 0 36 36" fill="none" xmlns="http://www.w3.org/2000/svg">
<rect width="36" height="36" rx="18" fill="#F88B49"/>
<rect width="24" height="24" transform="translate(6 6)" fill="#F88B49"/>
<path d="M27.09 12.98C26.24 12.04 24.82 11.57 22.76 11.57H22.52V11.53C22.52 9.85002 22.52 7.77002 18.76 7.77002H17.24C13.48 7.77002 13.48 9.86002 13.48 11.53V11.58H13.24C11.17 11.58 9.76001 12.05 8.91001 12.99C7.92001 14.09 7.95001 15.57 8.05001 16.58L8.06001 16.65L8.13746 17.4633C8.15173 17.6131 8.23239 17.7484 8.35828 17.8307C8.59809 17.9877 8.99943 18.2464 9.24001 18.38C9.38001 18.47 9.53001 18.55 9.68001 18.63C11.39 19.57 13.27 20.2 15.18 20.51C15.27 21.45 15.68 22.55 17.87 22.55C20.06 22.55 20.49 21.46 20.56 20.49C22.6 20.16 24.57 19.45 26.35 18.41C26.41 18.38 26.45 18.35 26.5 18.32C26.8967 18.0958 27.3083 17.8195 27.6835 17.5489C27.7965 17.4673 27.8688 17.3413 27.8841 17.2028L27.9 17.06L27.95 16.59C27.96 16.53 27.96 16.48 27.97 16.41C28.05 15.4 28.03 14.02 27.09 12.98ZM19.09 19.83C19.09 20.89 19.09 21.05 17.86 21.05C16.63 21.05 16.63 20.86 16.63 19.84V18.58H19.09V19.83ZM14.91 11.57V11.53C14.91 9.83002 14.91 9.20002 17.24 9.20002H18.76C21.09 9.20002 21.09 9.84002 21.09 11.53V11.58H14.91V11.57Z" fill="white"/>
<path d="M26.8735 19.7341C27.2271 19.5659 27.6343 19.8462 27.5989 20.2361L27.24 24.19C27.03 26.19 26.21 28.23 21.81 28.23H14.19C9.79 28.23 8.97 26.19 8.76 24.2L8.41928 20.4521C8.38424 20.0667 8.7822 19.7867 9.13484 19.9463C10.2743 20.4618 12.3774 21.3764 13.6766 21.7166C13.8409 21.7597 13.9738 21.8773 14.0457 22.0311C14.6527 23.3292 15.9691 24.02 17.87 24.02C19.7521 24.02 21.0852 23.3026 21.6941 22.0013C21.7662 21.8474 21.8992 21.7298 22.0636 21.6865C23.4432 21.3235 25.6818 20.3012 26.8735 19.7341Z" fill="white"/>
</svg>
