<svg width="39" height="32" viewBox="0 0 39 32" fill="none" xmlns="http://www.w3.org/2000/svg">
<path d="M11.73 15.606C14.688 16.83 16.524 19.482 16.524 23.256C16.524 28.254 12.954 31.62 8.364 31.62C3.468 31.62 0 28.152 0 23.256C0 20.91 0.408 19.176 2.244 14.484L7.65 0H15.81L11.73 15.606ZM33.354 15.606C36.312 16.83 38.148 19.482 38.148 23.256C38.148 28.254 34.578 31.62 29.988 31.62C25.092 31.62 21.624 28.152 21.624 23.256C21.624 20.91 22.032 19.176 23.868 14.484L29.274 0H37.434L33.354 15.606Z" fill="#A3E659"/>
</svg>
