<svg width="36" height="36" viewBox="0 0 36 36" fill="none" xmlns="http://www.w3.org/2000/svg">
<rect width="36" height="36" rx="18" fill="#40C135"/>
<path d="M18.8523 27.3855L18.8523 27.3855L22.0407 26.326C22.041 26.3259 22.0412 26.3258 22.0415 26.3258C22.5188 26.1651 22.9834 25.7997 23.3309 25.3185C23.6784 24.8372 23.88 24.2799 23.88 23.77V19.766L20.2647 22.1378L18.8523 27.3855ZM18.8523 27.3855L18.8493 27.3865M18.8523 27.3855L18.8493 27.3865M18.8493 27.3865C18.6369 27.4586 18.3275 27.5025 17.9962 27.5025C17.6646 27.5025 17.359 27.4584 17.1533 27.3874L17.1533 27.3873M18.8493 27.3865L17.1533 27.3873M17.1533 27.3873L17.1477 27.3855M17.1533 27.3873L17.1477 27.3855M17.1477 27.3855L13.9581 26.3256M17.1477 27.3855L13.9581 26.3256M13.9581 26.3256C13.9581 26.3256 13.9581 26.3256 13.958 26.3256M13.9581 26.3256L13.958 26.3256M13.958 26.3256C13.476 26.1649 13.0117 25.7997 12.6658 25.3191C12.32 24.8387 12.1201 24.2814 12.12 23.7704C12.12 23.7703 12.12 23.7701 12.12 23.77L12.1281 19.7613L15.7753 22.1378C15.7756 22.1379 15.7759 22.1381 15.7762 22.1383C16.4153 22.5582 17.2314 22.7525 18.02 22.7525C18.8088 22.7525 19.625 22.5581 20.2643 22.138L13.958 26.3256Z" stroke="white"/>
<path d="M25.98 12.4601L19.99 8.53006C18.91 7.82006 17.13 7.82006 16.05 8.53006L10.03 12.4601C8.09999 13.7101 8.09999 16.5401 10.03 17.8001L11.63 18.8401L16.05 21.7201C17.13 22.4301 18.91 22.4301 19.99 21.7201L24.38 18.8401L25.75 17.9401V21.0001C25.75 21.4101 26.09 21.7501 26.5 21.7501C26.91 21.7501 27.25 21.4101 27.25 21.0001V16.0801C27.65 14.7901 27.24 13.2901 25.98 12.4601Z" fill="white"/>
</svg>
