<svg width="29" height="28" viewBox="0 0 29 28" fill="none" xmlns="http://www.w3.org/2000/svg">
<path d="M8.44174 6.95333L18.9651 3.44166C23.6901 1.86666 26.2567 4.445 24.6934 9.17L21.1817 19.6933C18.8251 26.775 14.9517 26.775 12.5951 19.6933L11.5567 16.5667L8.43007 15.5283C1.36007 13.1833 1.36007 9.32166 8.44174 6.95333Z" fill="#094C3D"/>
<path d="M14.2867 13.5682L18.7317 9.11157L14.2867 13.5682Z" fill="#292D32"/>
<path d="M14.2868 14.4433C14.0651 14.4433 13.8434 14.3616 13.6684 14.1866C13.3301 13.8483 13.3301 13.2883 13.6684 12.9499L18.1018 8.49325C18.4401 8.15492 19.0001 8.15492 19.3384 8.49325C19.6768 8.83159 19.6768 9.39159 19.3384 9.72992L14.9051 14.1866C14.7301 14.3499 14.5084 14.4433 14.2868 14.4433Z" fill="#A3E659"/>
</svg>
