<svg width="10" height="11" viewBox="0 0 10 11" fill="none" xmlns="http://www.w3.org/2000/svg">
<path d="M9.65493 5.40749L8.63871 6.7059C8.47481 6.89383 8.36007 7.26968 8.37647 7.52595L8.47481 9.20022C8.54037 10.2253 7.83557 10.7549 6.9177 10.379L5.42616 9.764C5.19669 9.67858 4.80331 9.67858 4.57384 9.764L3.0823 10.379C2.16443 10.7549 1.45963 10.2253 1.52519 9.20022L1.62353 7.52595C1.63993 7.26968 1.52519 6.89383 1.36129 6.7059L0.345068 5.40749C-0.294166 4.6216 -0.0155242 3.7503 0.935131 3.49404L2.49224 3.08401C2.7381 3.01567 3.03313 2.77649 3.16425 2.55439L4.03295 1.15348C4.57384 0.282174 5.42616 0.282174 5.96705 1.15348L6.83575 2.55439C6.96687 2.77649 7.2619 3.01567 7.50776 3.08401L9.06487 3.49404C10.0155 3.7503 10.2942 4.6216 9.65493 5.40749Z" fill="#FBC056"/>
</svg>
