<svg width="82" height="14" viewBox="0 0 82 14" fill="none" xmlns="http://www.w3.org/2000/svg">
<path d="M13.5169 6.87048L12.0942 8.68826C11.8647 8.95136 11.7041 9.47755 11.7271 9.83633L11.8647 12.1803C11.9565 13.6154 10.9698 14.3568 9.68478 13.8307L7.59662 12.9696C7.27536 12.85 6.72464 12.85 6.40338 12.9696L4.31522 13.8307C3.0302 14.3568 2.04348 13.6154 2.13527 12.1803L2.27295 9.83633C2.2959 9.47755 2.13527 8.95136 1.9058 8.68826L0.483095 6.87048C-0.411832 5.77025 -0.0217339 4.55042 1.30918 4.19165L3.48913 3.61761C3.83334 3.52194 4.24638 3.18709 4.42995 2.87615L5.64614 0.914868C6.40338 -0.304956 7.59662 -0.304956 8.35386 0.914868L9.57005 2.87615C9.75362 3.18709 10.1667 3.52194 10.5109 3.61761L12.6908 4.19165C14.0217 4.55042 14.4118 5.77025 13.5169 6.87048Z" fill="#FBC056"/>
<path d="M30.5169 6.87048L29.0942 8.68826C28.8647 8.95136 28.7041 9.47755 28.7271 9.83633L28.8647 12.1803C28.9565 13.6154 27.9698 14.3568 26.6848 13.8307L24.5966 12.9696C24.2754 12.85 23.7246 12.85 23.4034 12.9696L21.3152 13.8307C20.0302 14.3568 19.0435 13.6154 19.1353 12.1803L19.2729 9.83633C19.2959 9.47755 19.1353 8.95136 18.9058 8.68826L17.4831 6.87048C16.5882 5.77025 16.9783 4.55042 18.3092 4.19165L20.4891 3.61761C20.8333 3.52194 21.2464 3.18709 21.43 2.87615L22.6461 0.914868C23.4034 -0.304956 24.5966 -0.304956 25.3539 0.914868L26.57 2.87615C26.7536 3.18709 27.1667 3.52194 27.5109 3.61761L29.6908 4.19165C31.0217 4.55042 31.4118 5.77025 30.5169 6.87048Z" fill="#FBC056"/>
<path d="M47.5169 6.87048L46.0942 8.68826C45.8647 8.95136 45.7041 9.47755 45.7271 9.83633L45.8647 12.1803C45.9565 13.6154 44.9698 14.3568 43.6848 13.8307L41.5966 12.9696C41.2754 12.85 40.7246 12.85 40.4034 12.9696L38.3152 13.8307C37.0302 14.3568 36.0435 13.6154 36.1353 12.1803L36.2729 9.83633C36.2959 9.47755 36.1353 8.95136 35.9058 8.68826L34.4831 6.87048C33.5882 5.77025 33.9783 4.55042 35.3092 4.19165L37.4891 3.61761C37.8333 3.52194 38.2464 3.18709 38.43 2.87615L39.6461 0.914868C40.4034 -0.304956 41.5966 -0.304956 42.3539 0.914868L43.57 2.87615C43.7536 3.18709 44.1667 3.52194 44.5109 3.61761L46.6908 4.19165C48.0217 4.55042 48.4118 5.77025 47.5169 6.87048Z" fill="#FBC056"/>
<path d="M64.5169 6.87048L63.0942 8.68826C62.8647 8.95136 62.7041 9.47755 62.7271 9.83633L62.8647 12.1803C62.9565 13.6154 61.9698 14.3568 60.6848 13.8307L58.5966 12.9696C58.2754 12.85 57.7246 12.85 57.4034 12.9696L55.3152 13.8307C54.0302 14.3568 53.0435 13.6154 53.1353 12.1803L53.2729 9.83633C53.2959 9.47755 53.1353 8.95136 52.9058 8.68826L51.4831 6.87048C50.5882 5.77025 50.9783 4.55042 52.3092 4.19165L54.4891 3.61761C54.8333 3.52194 55.2464 3.18709 55.43 2.87615L56.6461 0.914868C57.4034 -0.304956 58.5966 -0.304956 59.3539 0.914868L60.57 2.87615C60.7536 3.18709 61.1667 3.52194 61.5109 3.61761L63.6908 4.19165C65.0217 4.55042 65.4118 5.77025 64.5169 6.87048Z" fill="#FBC056"/>
<path d="M81.5169 6.87048L80.0942 8.68826C79.8647 8.95136 79.7041 9.47755 79.7271 9.83633L79.8647 12.1803C79.9565 13.6154 78.9698 14.3568 77.6848 13.8307L75.5966 12.9696C75.2754 12.85 74.7246 12.85 74.4034 12.9696L72.3152 13.8307C71.0302 14.3568 70.0435 13.6154 70.1353 12.1803L70.2729 9.83633C70.2959 9.47755 70.1353 8.95136 69.9058 8.68826L68.4831 6.87048C67.5882 5.77025 67.9783 4.55042 69.3092 4.19165L71.4891 3.61761C71.8333 3.52194 72.2464 3.18709 72.43 2.87615L73.6461 0.914868C74.4034 -0.304956 75.5966 -0.304956 76.3539 0.914868L77.57 2.87615C77.7536 3.18709 78.1667 3.52194 78.5109 3.61761L80.6908 4.19165C82.0217 4.55042 82.4118 5.77025 81.5169 6.87048Z" fill="#E7E7E7"/>
<path fill-rule="evenodd" clip-rule="evenodd" d="M75 12.8799C74.782 12.8799 74.564 12.9098 74.4034 12.9696L72.3152 13.8307C71.0302 14.3568 70.0435 13.6154 70.1353 12.1803L70.2729 9.83633C70.2959 9.47755 70.1353 8.95136 69.9058 8.68826L68.4831 6.87048C67.5882 5.77025 67.9783 4.55042 69.3092 4.19165L71.4891 3.61761C71.8333 3.52194 72.2464 3.18709 72.43 2.87615L73.6461 0.914868C74.0248 0.304956 74.5124 0 75 0V12.8799Z" fill="#FBC056"/>
</svg>
